<svg width="467" height="763" viewBox="0 0 467 763" fill="none" xmlns="http://www.w3.org/2000/svg">
<path fill-rule="evenodd" clip-rule="evenodd" d="M660.007 448.783C655.868 417.816 652.185 386.436 648.998 354.636C637.359 349.767 625.752 344.787 614.173 339.72C611.344 338.483 608.518 337.239 605.693 335.99C608.477 367.17 611.789 397.908 615.58 428.219C630.319 435.311 645.124 442.187 660.007 448.783ZM661.153 453.87C714.955 477.853 769.845 498.138 826.412 511.85L827.562 507.019C770.39 493.445 714.92 473.094 660.502 449.002C656.388 418.029 652.725 386.652 649.553 354.869C714.388 381.973 780.23 405.644 847.961 421.767C780.163 405.368 714.321 381.147 649.432 353.65C648.371 342.983 647.366 332.27 646.418 321.512C644.711 302.171 643.229 282.659 641.972 262.989C716.374 291.202 791.363 317.376 868.278 335.985L869.428 331.154C792.142 312.856 716.658 286.772 641.716 258.937C639.956 230.676 638.659 202.089 637.826 173.205C641.763 174.422 645.7 175.639 649.637 176.857L650.096 176.999C653.391 178.018 656.687 179.038 659.983 180.056C736.115 203.846 812.423 227.117 889.882 245.556C812.481 226.876 736.347 202.983 660.284 178.903C652.781 176.563 645.283 174.201 637.787 171.834C637.035 145.293 636.675 118.503 636.708 91.488C651.461 94.9142 666.18 98.4965 680.855 102.166C712.952 110.192 744.932 118.613 776.916 127.035L776.923 127.037L776.924 127.037L776.924 127.037L776.925 127.037L776.925 127.037L776.926 127.038L776.926 127.038C821.177 138.69 865.435 150.343 910.02 160.957L911.17 156.125C867.347 145.81 823.765 134.619 780.156 123.422L780.151 123.42C747.401 115.011 714.637 106.598 681.742 98.5485C666.786 94.8883 651.776 91.3014 636.715 87.8801C636.722 84.9249 636.734 81.967 636.751 79.0065C636.982 56.6935 637.515 34.2074 638.406 11.5732C659.528 14.2087 680.527 17.4683 701.438 21.0944C772.125 33.2602 841.868 49.6697 911.597 66.0762C918.237 67.6387 924.878 69.2011 931.519 70.7598C928.676 70.0772 925.832 69.3942 922.989 68.7109L919.159 67.7905L916.114 67.0585C844.97 49.9575 773.826 32.8565 701.712 19.8323C680.735 16.1128 659.668 12.7027 638.471 9.93457C639.432 -14.0243 640.795 -38.1484 642.626 -62.408C668.794 -62.2021 694.702 -60.4317 720.393 -57.6609C798.849 -49.3484 875.641 -33.06 951.935 -14.8983L953.085 -19.7297C876.686 -37.5592 799.741 -53.4245 721.133 -61.3139C695.195 -63.7334 669.153 -65.3849 642.861 -65.4941C644.582 -87.8188 646.701 -110.257 649.27 -132.786C679.379 -136.969 709.149 -138.658 738.487 -137.847C818.665 -136.22 896.582 -122.676 973.351 -104.86C896.66 -123.116 818.836 -137.048 738.7 -139.072C709.366 -140.09 679.597 -138.609 649.482 -134.637C651.106 -148.739 652.906 -162.877 654.895 -177.044C655.872 -184.093 656.903 -191.146 657.988 -198.201C690.752 -207.883 723.154 -213.565 754.964 -215.2C775.494 -216.643 795.823 -216.91 816.02 -216.288C836.169 -215.508 856.192 -214.009 876.087 -211.791C915.821 -207.234 954.951 -199.808 993.655 -190.595L994.805 -195.426C956.005 -204.458 916.768 -211.654 876.939 -216.031C857.001 -218.071 836.936 -219.682 816.705 -220.159C796.474 -220.635 776.073 -220.284 755.494 -218.75C723.665 -216.978 691.252 -211.173 658.481 -201.385C661.587 -221.295 665.121 -241.219 669.072 -261.109C681.682 -267.249 694.27 -272.468 706.803 -276.748C728.278 -284.246 749.64 -289.627 770.773 -293.377C855.373 -307.801 936.627 -298.924 1015.24 -280.72C936.719 -299.31 855.433 -308.603 770.925 -294.566C749.755 -291.051 728.358 -285.597 706.814 -278.226C694.4 -274.046 681.931 -268.946 669.438 -262.944C672.401 -277.757 675.595 -292.551 679.017 -307.306C679.853 -310.914 680.707 -314.517 681.579 -318.115C694.123 -326.849 706.725 -334.424 719.327 -340.8C741.338 -352.073 763.293 -360.815 785.044 -366.968C828.55 -378.848 871.366 -384.028 913.02 -382.451C933.905 -381.972 954.577 -380.267 974.974 -377.3C995.371 -374.334 1015.55 -370.449 1035.55 -365.689L1036.7 -370.521C1016.63 -375.094 996.411 -379.141 975.92 -381.824C955.429 -384.507 934.645 -386.288 913.798 -386.707C871.973 -388.057 828.991 -382.627 785.329 -370.474C763.478 -364.186 741.427 -355.296 719.323 -343.863C707.012 -337.598 694.701 -330.187 682.447 -321.669C686.708 -338.986 691.394 -356.166 696.487 -373.152C696.987 -373.627 697.488 -374.1 697.988 -374.57C708.987 -384.794 720.112 -394.076 731.314 -402.374C753.709 -418.694 776.271 -431.723 798.734 -441.309C843.674 -459.804 888.06 -469.413 931.047 -469.952C952.567 -470.599 973.89 -469.76 994.858 -467.321C1009.79 -465.584 1024.61 -463.28 1039.28 -460.339C1045.21 -459.128 1051.11 -457.832 1057 -456.46C1051.12 -457.86 1045.21 -459.152 1039.28 -460.339C1024.62 -463.339 1009.84 -465.821 994.913 -467.666C973.921 -470.11 952.662 -471.069 931.136 -470.543C888.153 -470.25 843.749 -460.834 798.776 -442.473C776.276 -432.979 753.671 -420.028 731.228 -403.773C720.006 -395.582 708.859 -386.39 697.836 -376.241C697.642 -376.059 697.447 -375.877 697.253 -375.695C701.918 -391.113 706.919 -406.368 712.241 -421.413C722.295 -433.933 732.638 -445.428 743.196 -455.807C765.498 -477.849 788.405 -495.736 811.441 -509.096C857.634 -536.287 903.466 -548.656 947.904 -552.526C992.309 -555.722 1035.59 -552.045 1077.3 -541.532L1078.45 -546.364C1036.57 -556.738 993.116 -560.251 948.544 -556.867C903.925 -552.785 857.752 -540.19 811.393 -512.63C788.211 -499.097 765.167 -481.003 742.738 -458.724C733.084 -449.181 723.611 -438.712 714.375 -427.385C715.156 -429.552 715.945 -431.714 716.74 -433.872C718.525 -439.063 720.524 -444.049 722.547 -449.03C723.307 -450.901 724.054 -452.825 724.798 -454.742C726.037 -457.932 727.269 -461.106 728.544 -463.991C729.603 -466.432 730.656 -468.896 731.71 -471.363L731.716 -471.378C732.64 -472.806 733.568 -474.227 734.495 -475.648L734.497 -475.65C736.114 -478.127 737.731 -480.604 739.329 -483.121C740.857 -485.313 742.398 -487.486 743.935 -489.652C745.038 -491.206 746.138 -492.757 747.229 -494.31L751.191 -499.953C751.945 -500.974 752.719 -501.974 753.496 -502.975C754.072 -503.72 754.65 -504.465 755.221 -505.222L763.354 -515.742L771.684 -525.655C775.398 -530.234 779.234 -534.315 783.076 -538.402L783.077 -538.403C784.908 -540.351 786.74 -542.3 788.56 -544.305C799.965 -555.989 811.566 -566.513 823.29 -575.808C846.793 -594.355 870.589 -608.719 894.258 -618.646C917.917 -628.557 941.4 -635.273 964.498 -638.734C1010.8 -646.04 1055.37 -641.66 1098.5 -631.903C1055.41 -641.853 1010.79 -646.451 964.586 -639.326C941.517 -635.974 918.057 -629.355 894.416 -619.528C870.713 -609.655 846.88 -595.351 823.333 -576.87C811.562 -567.588 799.911 -557.076 788.455 -545.402C787.09 -543.934 785.712 -542.475 784.329 -541.011C780.039 -536.469 775.695 -531.871 771.529 -526.764L763.175 -516.857L755.016 -506.342C754.561 -505.752 754.105 -505.168 753.648 -504.584C752.737 -503.417 751.825 -502.251 750.926 -501.037L746.964 -495.394C746.049 -494.093 745.126 -492.794 744.2 -491.492C742.479 -489.073 740.75 -486.641 739.053 -484.158C737.471 -481.68 735.871 -479.242 734.27 -476.803L734.268 -476.799L734.264 -476.793L733.604 -475.788C736.144 -481.701 738.713 -487.551 741.403 -493.042C750.234 -512.15 759.739 -530.377 769.824 -547.54L777.476 -560.218C779.105 -562.952 780.813 -565.52 782.522 -568.089L782.528 -568.098C783.472 -569.516 784.416 -570.936 785.347 -572.384C789.35 -578.667 793.537 -584.428 797.725 -590.191C799.003 -591.949 800.281 -593.708 801.555 -595.482C812.613 -610.212 824.06 -623.654 835.788 -635.679C847.507 -647.785 859.451 -658.591 871.527 -668.014C883.604 -677.328 895.769 -685.413 907.95 -692.221C932.342 -705.733 956.682 -715.14 980.617 -720.308C1028.56 -731 1074.72 -727.57 1119.02 -717.331L1120.17 -722.162C1075.7 -732.34 1029.32 -735.619 981.073 -724.642C956.985 -719.349 932.494 -709.788 907.957 -696.1C895.662 -689.027 883.391 -680.677 871.214 -671.1C859.062 -661.559 847.043 -650.654 835.246 -638.463C823.429 -626.286 811.894 -612.695 800.749 -597.817C799.523 -596.103 798.292 -594.403 797.061 -592.703L797.044 -592.679C792.767 -586.772 788.491 -580.867 784.411 -574.392C783.507 -572.986 782.591 -571.625 781.674 -570.26C779.934 -567.673 778.187 -565.075 776.493 -562.136L768.793 -549.368C758.657 -532.059 749.101 -513.691 740.219 -494.447C736.578 -486.923 733.238 -479.071 729.897 -471.217C729.414 -470.08 728.93 -468.943 728.446 -467.807C726.87 -465.306 725.315 -462.756 723.799 -460.117C713.843 -443.621 704.419 -426.097 695.614 -407.708C693.282 -402.806 690.992 -397.855 688.745 -392.857C685.456 -388.004 682.208 -383.04 679.003 -377.967C667.247 -359.248 656.266 -339.054 646.135 -317.773C632.033 -298.565 618.685 -277.207 606.33 -254.055C605.113 -251.742 603.907 -249.412 602.712 -247.068C598.482 -241.796 594.306 -236.333 590.189 -230.686L586.366 -225.623L582.707 -220.264L575.443 -209.435C570.775 -201.816 566.182 -194.18 561.579 -186.392C559.556 -182.97 557.604 -179.422 555.689 -175.817C552.612 -172.263 549.558 -168.608 546.53 -164.857C536.516 -152.194 526.865 -138.355 517.671 -123.481C515.922 -120.593 514.195 -117.663 512.489 -114.694C509.212 -111.278 505.959 -107.733 502.732 -104.063C490.533 -90.5107 478.923 -74.7322 468.161 -57.1268C465.118 -54.3283 462.091 -51.4161 459.081 -48.3923C448.784 -38.2663 438.804 -26.4341 429.315 -13.1038C427.447 -10.5303 425.607 -7.89149 423.795 -5.19062C420.722 -2.76954 417.658 -0.243511 414.604 2.38596C404.231 11.4816 394.096 22.2786 384.366 34.6004C382.413 37.12 380.489 39.7224 378.595 42.4038C364.984 51.3648 351.476 62.7927 338.655 78.1411C336.695 80.4484 334.764 82.8546 332.865 85.3543C329.723 87.0043 326.572 88.7675 323.381 91.0455C312.768 97.6579 302.266 106.63 292.158 117.717C290.989 119.009 289.831 120.344 288.685 121.72C284.488 123.447 280.28 125.397 276.068 127.568C265.276 133.122 254.519 141.611 244.214 152.71C243.06 153.959 241.919 155.258 240.794 156.606C236.237 158.118 231.657 159.97 227.067 162.159C217.107 166.487 207.116 173.951 197.593 184.166C190.621 185.405 183.549 187.498 176.426 190.435C167.527 193.812 158.571 200.594 150.198 210.233C141.548 210.894 132.65 213.326 123.667 217.493C117.985 220.309 112.311 224.66 106.859 230.38C105.687 230.308 104.512 230.253 103.334 230.214C97.8032 230.102 92.1442 230.751 86.4022 232.156C80.6081 233.46 74.6775 236.371 68.8214 240.785C65.7585 243.042 62.7832 246.036 59.9923 249.644C55.7663 249.149 51.4784 248.951 47.137 249.052C41.4142 249.25 35.4822 250.895 29.5037 253.942C26.5027 255.564 23.5116 257.819 20.6006 260.654C17.7039 263.629 14.9804 267.393 12.5635 271.76C7.88738 280.827 4.54051 291.5 2.99912 302.259C1.38167 312.875 0.514563 323.394 0.419579 333.553C0.376276 353.76 1.48722 373.294 3.73709 391.879C6.49894 415.63 9.85626 438.85 13.8002 461.485C16.0295 474.416 18.4515 487.155 21.0647 499.693C23.456 511.478 25.9385 523.189 28.498 534.838C33.4095 557.275 38.6291 579.412 44.0115 601.389C38.6227 579.386 33.418 557.228 28.498 534.838C25.9462 523.18 23.4776 511.441 21.1125 499.602C18.4857 487.093 16.0477 474.384 13.8002 461.485C9.89706 438.846 6.58489 415.618 3.87261 391.86C1.72037 373.228 0.724322 353.651 0.898512 333.411C0.99848 323.303 1.8704 312.836 3.49278 302.274C4.9984 291.706 8.30128 281.223 12.9192 272.354C15.2686 268.09 17.9185 264.413 20.7388 261.504C23.6001 258.737 26.5363 256.522 29.4834 254.906C35.4072 251.93 41.2817 250.34 46.9466 250.18C51.0695 250.097 55.1434 250.286 59.1611 250.744C56.7935 253.952 54.5693 257.604 52.5503 261.622C48.1213 270.916 44.8466 281.447 43.0604 292.138C39.245 313.336 39.0399 333.556 39.6711 352.902C40.4243 372.15 41.952 390.865 44.2443 408.923C48.8336 444.919 54.6358 479.804 61.6258 513.43C68.4658 547.171 75.9588 580.149 83.9253 612.677L86.478 609.762C78.5381 577.342 70.9364 544.492 64.0619 510.897C57.0297 477.476 51.1897 442.785 46.5673 406.975C44.2684 389.095 42.7229 370.563 41.9416 351.503C41.4113 332.283 41.5011 312.547 45.1113 292.321C46.7823 282.336 49.8285 272.498 53.945 263.792C56.3711 258.945 59.1196 254.669 62.0653 251.125C68.08 252.013 73.9628 253.515 79.688 255.626C83.2132 256.942 86.719 258.326 90.2052 259.778C87.561 267.235 85.5194 275.077 84.1719 282.985C82.3994 293.019 81.2561 303.026 80.765 312.806C79.7952 332.422 80.018 351.505 81.4301 369.735C82.7108 388.113 84.6597 405.884 86.9979 423.339C91.5389 458.268 97.8436 491.728 104.569 524.522C111.293 557.316 118.746 589.364 126.475 621.019C118.794 589.273 111.316 557.219 104.605 524.48C97.8932 491.74 91.8099 458.23 87.183 423.332C84.8086 405.948 82.9915 388.067 81.7389 369.758C80.365 351.555 80.1675 332.514 81.1497 312.948C81.6906 303.162 82.8583 293.165 84.631 283.145C85.9879 275.248 88.0422 267.42 90.7007 259.985C101.739 264.606 112.579 269.912 123.205 275.895C120.222 295.082 118.834 314.065 119.091 332.191C119.208 350.936 120.106 369.217 121.778 386.896C123.244 404.603 125.333 421.896 127.725 438.905C137.451 506.721 151.481 570.201 166.487 632.331L168.99 629.405C153.877 567.505 139.789 504.265 130.008 436.793C127.631 419.942 125.544 402.751 123.969 385.172C122.32 367.67 121.429 349.581 121.304 331.034C121.019 313.622 122.285 295.391 125.057 276.946C130.157 279.863 135.207 282.936 140.206 286.165C146.977 290.36 153.675 294.689 160.324 299.124C159.474 316.003 159.384 332.557 160.055 348.631C161.764 384.335 165.228 418.778 170.415 451.62C180.896 517.151 193.792 580.273 209.039 640.674C193.938 580.062 181.195 516.738 170.873 451.015C165.747 418.155 162.336 383.709 160.674 348.013C160.05 332.271 160.154 316.074 160.985 299.566C173.425 307.881 185.693 316.565 197.939 325.434C198.11 325.559 198.282 325.684 198.453 325.809C198.571 338.827 199.031 351.645 199.832 364.225C202.197 398.998 205.955 432.704 211.081 465.128C215.928 497.216 222.035 528.068 228.137 558.896L228.137 558.897L228.411 560.282C234.6 591.549 241.818 621.786 249.01 651.915L249.012 651.923L249.025 651.979L251.848 648.259C244.603 618.2 237.539 587.93 231.058 557.083C224.576 526.235 218.553 494.783 213.599 462.359C208.448 430.147 204.658 396.653 202.251 362.095C201.5 350.77 201.031 339.246 200.845 327.552C213.913 337.092 226.906 346.813 239.861 356.641C240.265 363.61 240.771 370.509 241.38 377.333C244.247 411.292 248.295 444.299 253.506 476.198C256.067 492.276 258.625 508.151 261.694 523.635C262.6 528.21 263.49 532.799 264.38 537.386C266.5 548.324 268.619 559.25 270.96 569.951C277.293 600.762 284.422 630.539 291.576 660.321C284.47 630.448 277.425 600.538 271.096 569.932C267.809 554.701 264.702 539.157 261.902 523.532C259.102 507.907 256.283 491.92 253.811 476.016C248.646 444.102 244.655 411.072 241.857 377.088C241.28 370.481 240.799 363.803 240.414 357.06C253.982 367.358 267.511 377.772 281.044 388.218C281.107 388.876 281.17 389.533 281.234 390.19C284.392 423.697 288.593 456.339 293.823 487.992C296.31 504.053 298.952 519.793 301.971 535.266C302.677 538.882 303.376 542.503 304.075 546.122L304.076 546.128L304.077 546.131C306.367 557.993 308.654 569.836 311.161 581.462C317.479 612.117 324.498 641.918 331.589 671.634L334.188 668.526C327.038 638.949 319.971 609.238 313.669 578.74C310.359 563.606 307.182 548.351 304.407 532.732C303.705 528.782 302.992 524.836 302.279 520.887L302.275 520.865L302.274 520.86L302.274 520.859L302.274 520.857L302.273 520.856L302.273 520.854L302.273 520.852L302.273 520.851C300.168 509.197 298.058 497.521 296.214 485.651C291.057 454.781 286.891 422.955 283.73 390.291C285.968 392.019 288.206 393.747 290.445 395.476C297.246 400.729 304.05 405.984 310.865 411.232C315.722 414.991 320.58 418.746 325.441 422.496C328.424 447.827 332.054 472.613 336.064 496.975C341.276 528.644 347.306 559.74 353.643 590.094C359.98 620.447 367 650.35 374.139 679.975C367.048 650.259 360.37 620.131 353.945 589.706C347.52 559.28 341.761 528.146 336.549 496.477C332.6 472.486 329.089 448.041 326.193 423.076C340.22 433.895 354.267 444.666 368.349 455.345C370.703 472.751 373.298 489.931 376.089 506.911C381.33 538.79 387.323 569.93 393.643 600.687C399.962 631.445 406.996 661.403 414.127 691.281L416.57 688.494C409.405 658.76 402.324 628.892 395.956 598.226C389.546 567.667 383.656 536.536 378.287 504.83C375.638 489.19 373.204 473.36 370.985 457.342C385.303 468.183 399.658 478.926 414.066 489.52C415.332 497.696 416.641 505.83 417.988 513.924C423.331 546.032 429.55 577.327 435.886 608.344C442.222 639.361 449.445 669.516 456.678 699.624C449.506 669.48 442.38 639.245 436.229 608.221C429.795 577.249 423.886 545.722 418.502 513.638C417.186 505.799 415.92 497.915 414.702 489.988C428.921 500.437 443.191 510.742 457.53 520.855C457.594 521.239 457.658 521.622 457.723 522.005C459.042 530.249 460.433 538.373 461.896 546.379L466.275 570.549C467.127 574.886 467.968 579.24 468.81 583.596C471.046 595.163 473.286 606.747 475.723 618.082C482.167 649.636 489.387 680.352 496.666 710.93L499.306 708.087C491.98 677.6 484.725 647.028 478.233 615.565C474.842 600.004 471.806 584.271 468.715 568.219L464.313 544.148C462.996 537.193 461.782 530.146 460.612 523.026C474.835 533.024 489.125 542.831 503.499 552.402C504.934 560.575 506.439 568.676 508.047 576.664C509.127 582.025 510.184 587.408 511.24 592.792C513.355 603.564 515.469 614.336 517.767 624.925C524.38 656.978 531.744 688.188 539.217 719.272C531.817 688.104 524.489 656.851 518.146 624.76C514.666 609.024 511.426 592.937 508.501 576.516C507.656 571.772 506.794 567.045 505.932 562.319L505.931 562.313C505.357 559.17 504.784 556.027 504.216 552.879C515.868 560.63 527.574 568.225 539.344 575.64C543.206 578.069 547.075 580.479 550.951 582.867C560.427 633.699 571.322 683.046 582.969 731.474L585.656 728.438C574.268 681.658 563.627 633.966 554.285 584.916C569.682 594.348 585.194 603.45 600.837 612.143C609.48 655.932 619.042 698.754 629.288 740.712C619.142 698.793 609.669 656.017 601.106 612.293C616.313 620.738 631.644 628.796 647.116 636.395C655.077 675.977 663.746 714.8 672.991 752.904L675.395 749.954C666.422 713.287 657.985 675.949 650.204 637.905C653.104 639.315 656.008 640.71 658.918 642.088C671.12 647.959 683.436 653.438 695.862 658.524C703.175 693.646 711.021 728.184 719.334 762.148C711.095 728.203 703.32 693.693 696.074 658.611C725.018 670.445 754.558 680.145 784.633 687.688L785.783 682.856C754.933 675.294 724.647 665.449 694.991 653.343C688.238 620.35 681.954 586.853 676.194 552.847C718.466 571.43 761.638 586.846 806.044 597.417C761.581 586.616 718.369 570.964 676.071 552.12C670.61 519.831 665.622 487.083 661.153 453.87ZM694.769 653.252C687.958 620.245 681.621 586.724 675.812 552.679C660.611 545.989 645.527 538.89 630.543 531.46C636.191 565.758 642.417 599.496 649.144 632.696C652.802 634.469 656.467 636.217 660.141 637.938C671.584 643.39 683.128 648.495 694.769 653.252ZM646.076 631.202C639.471 598.046 633.364 564.357 627.833 530.113C612.65 522.538 597.569 514.628 582.575 506.464C587.833 540.626 593.716 574.207 600.123 607.245C615.315 615.637 630.627 623.645 646.076 631.202ZM599.845 607.092C593.386 574.038 587.454 540.432 582.151 506.233C576.455 503.13 570.771 499.99 565.099 496.818C555.598 491.504 546.131 486.081 536.693 480.563L536.825 481.511C539.222 498.827 541.996 515.774 544.928 532.604C547.594 548.572 550.412 564.385 553.365 580.059C568.744 589.427 584.231 598.462 599.845 607.092ZM550.055 578.037C547.427 563.777 544.912 549.398 542.525 534.89C540.265 521.918 538.257 508.673 536.251 495.445L536.251 495.442C535.655 491.508 535.058 487.576 534.456 483.653C534.209 482.048 533.967 480.438 533.727 478.825C518.598 469.941 503.545 460.817 488.548 451.512C491.867 477.159 495.632 502.417 499.824 527.176C500.941 534.29 502.149 541.314 503.395 548.304C515.706 556.435 528.076 564.39 540.517 572.142C543.692 574.12 546.871 576.086 550.055 578.037ZM502.708 547.85C501.539 541.056 500.412 534.218 499.309 527.36C495.05 502.332 491.226 476.903 487.838 451.07C473.982 442.466 460.175 433.708 446.403 424.843C450.182 456.763 454.697 488.122 459.904 518.738C474.101 528.648 488.364 538.367 502.708 547.85ZM456.817 516.58C451.776 486.087 447.424 454.94 443.76 423.14C430.083 414.32 416.439 405.397 402.816 396.418C403.443 402.699 404.109 408.949 404.815 415.166C407.489 439.157 410.582 462.771 414.096 486.006C428.281 496.356 442.516 506.563 456.817 516.58ZM413.454 485.538C409.945 462.568 406.789 439.262 404.119 415.562C403.363 409.034 402.651 402.469 401.983 395.869C388.378 386.899 374.793 377.874 361.214 368.84C362.225 381.838 363.43 394.689 364.828 407.383C366.518 422.987 368.403 438.42 370.482 453.682C384.766 464.413 399.084 475.048 413.454 485.538ZM367.862 451.712C365.988 437.623 364.275 423.383 362.746 408.98C361.259 395.277 359.996 381.392 358.957 367.339C356.432 365.659 353.907 363.978 351.383 362.298C346.7 359.181 342.017 356.065 337.334 352.95L335.673 351.852C330.206 348.238 324.739 344.623 319.27 341.016C320.213 360.69 321.66 380.019 323.607 398.949C324.293 405.938 325.031 412.886 325.816 419.794C339.809 430.493 353.819 441.147 367.862 451.712ZM325.059 419.215C324.307 412.699 323.599 406.146 322.939 399.555C320.925 380.258 319.428 360.547 318.452 340.477C305.476 331.922 292.483 323.412 279.442 315.056C279.79 339.812 281.127 363.968 283.445 387.361C286.587 389.766 289.729 392.172 292.871 394.578C299.143 399.381 305.415 404.184 311.689 408.978C316.144 412.393 320.601 415.807 325.059 419.215ZM280.774 385.317C278.65 362.096 277.47 338.154 277.241 313.647C264.767 305.674 252.248 297.846 239.656 290.258C238.95 312.186 239.157 333.669 240.274 354.542C253.796 364.71 267.288 375 280.774 385.317ZM239.72 354.125C238.588 333.275 238.368 311.812 239.063 289.901C233.924 286.807 228.772 283.754 223.607 280.746C216.801 276.815 209.968 272.96 203.093 269.235C201.736 282.671 200.964 295.952 200.787 308.959C200.735 314.464 200.744 319.935 200.814 325.371C213.822 334.789 226.784 344.401 239.72 354.125ZM198.437 323.652C198.41 319.306 198.421 314.939 198.471 310.551C198.678 296.674 199.55 282.491 201.076 268.147C189.902 262.141 178.617 256.491 167.168 251.426C164.164 265.216 162.206 279.131 161.37 292.735C161.265 294.417 161.168 296.096 161.078 297.772C173.643 306.082 186.072 314.778 198.437 323.652ZM160.416 297.334C160.489 295.967 160.567 294.598 160.65 293.227C161.495 279.373 163.485 265.199 166.544 251.151C166.003 250.912 165.461 250.675 164.919 250.439C155.111 246.201 145.191 242.329 135.041 239.423C134.224 241.4 133.448 243.421 132.715 245.48C129.573 254.684 127.145 264.288 125.522 273.939C125.442 274.441 125.363 274.943 125.285 275.445C130.437 278.362 135.538 281.438 140.588 284.673C147.241 288.767 153.847 292.998 160.416 297.334ZM123.439 274.407C123.47 274.213 123.501 274.018 123.533 273.823C125.229 263.779 127.768 253.785 131.053 244.215C131.701 242.395 132.382 240.603 133.094 238.844C123.883 236.117 114.389 234.547 104.67 234.145C100.229 239.57 96.2237 246.393 92.9506 254.136C92.3238 255.654 91.7228 257.194 91.1484 258.752C102.111 263.299 112.88 268.52 123.439 274.407ZM90.6491 258.545C91.267 256.855 91.9159 255.186 92.5948 253.542C95.7245 246.111 99.5119 239.499 103.709 234.109C103.348 234.097 102.986 234.087 102.623 234.078C97.1852 233.983 91.6213 234.637 85.976 236.037C80.3893 237.328 74.6747 240.153 69.0321 244.41C66.9619 245.94 64.9353 247.834 62.9871 250.047C68.7576 250.921 74.4069 252.358 79.913 254.352C83.5118 255.679 87.0906 257.076 90.6491 258.545ZM134.569 235.345C125.936 232.728 117.061 231.095 107.988 230.455C113.066 225.315 118.326 221.385 123.591 218.802C132.137 214.893 140.603 212.555 148.849 211.817C147.119 213.888 145.416 216.081 143.745 218.392C140.362 223.474 137.274 229.184 134.569 235.345ZM165.932 246.954C156.278 242.786 146.538 238.883 136.545 235.934C138.978 230.525 141.719 225.492 144.703 220.968C147.149 217.581 149.667 214.454 152.238 211.604C153.698 211.551 155.151 211.549 156.595 211.598C164.049 211.643 171.399 212.256 178.628 213.435L177.902 215.037C176.883 217.135 175.947 219.337 175.104 221.62L172.621 228.533L171.409 231.972L170.409 235.513C169.301 239.515 168.279 243.542 167.345 247.582C166.874 247.372 166.403 247.162 165.932 246.954ZM201.462 264.635C190.425 258.634 179.284 252.949 167.968 247.862C168.924 243.732 169.972 239.616 171.113 235.527L171.964 231.952L173.189 228.566L175.638 221.798C176.461 219.543 177.381 217.37 178.388 215.306L179.201 213.53C182.163 214.025 185.104 214.616 188.023 215.302C195.259 216.898 202.407 218.854 209.485 221.083C206.525 231.926 204.265 243.018 202.774 254.09C202.298 257.612 201.86 261.128 201.462 264.635ZM224.627 277.671C217.6 273.615 210.551 269.609 203.461 265.725C203.905 261.624 204.404 257.509 204.957 253.384C206.374 242.752 208.522 232.097 211.335 221.672C222.376 225.228 233.251 229.43 244.036 233.947C242.102 246.328 240.715 258.666 239.893 270.839C239.606 276.037 239.369 281.212 239.183 286.363C234.344 283.428 229.492 280.529 224.627 277.671ZM277.215 310.222C264.797 302.205 252.328 294.344 239.778 286.724C239.972 281.418 240.22 276.087 240.52 270.733C241.37 258.679 242.765 246.47 244.691 234.222C245.759 234.671 246.827 235.123 247.894 235.578C258.417 240.133 268.858 244.965 279.235 250.005C279.012 252.641 278.825 255.264 278.695 257.869C278.593 259.72 278.461 261.59 278.328 263.461C278.133 266.223 277.937 268.988 277.837 271.704L277.395 285.331C277.228 293.687 277.168 301.986 277.215 310.222ZM279.512 284.356C279.344 293.521 279.307 302.617 279.4 311.634C292.412 320.057 305.369 328.646 318.302 337.302C317.68 323.715 317.295 309.966 317.149 296.071C317.012 287.291 317.068 278.41 317.315 269.446C305.324 263.07 293.279 256.864 281.15 250.939C280.989 253.011 280.854 255.077 280.755 257.134C280.665 258.622 280.563 260.113 280.461 261.603C280.249 264.696 280.037 267.782 279.932 270.824L279.512 284.356ZM317.99 295.506C318.115 309.78 318.493 323.901 319.122 337.851C325.476 342.105 331.824 346.374 338.17 350.648C342.224 353.369 346.278 356.091 350.331 358.813L350.641 359.021C353.343 360.836 356.046 362.65 358.748 364.464C357.37 345.227 356.412 325.677 355.876 305.852C355.723 300.698 355.618 295.517 355.562 290.308C343.132 283.406 330.681 276.562 318.172 269.902C317.934 278.519 317.873 287.059 317.99 295.506ZM357.831 304.786C358.424 325.499 359.479 345.908 360.994 365.972C374.559 375.078 388.129 384.173 401.717 393.214C399.119 367.037 397.21 340.304 395.998 313.086C384.88 306.771 373.757 300.479 362.621 294.234C361.517 293.62 360.414 293.006 359.311 292.392L357.518 291.395C357.586 295.879 357.691 300.343 357.831 304.786ZM396.918 313.609C398.108 340.832 399.989 367.576 402.554 393.77C416.174 402.829 429.813 411.832 443.485 420.735C440.316 392.899 437.687 364.577 435.828 335.766C431.83 333.489 427.833 331.211 423.836 328.933C414.864 323.82 405.893 318.708 396.918 313.609ZM445.999 421.403L446.122 422.45C459.896 431.403 473.704 440.251 487.56 448.949C486.568 441.322 485.613 433.659 484.696 425.962C482.107 404.113 479.786 382.021 477.885 359.606C464.629 352.147 451.393 344.628 438.162 337.095C440.056 365.386 442.718 393.13 445.882 420.398L445.999 421.403ZM485.37 425.663C486.296 433.608 487.265 441.521 488.276 449.398C503.275 458.806 518.332 468.037 533.463 477.033C531.264 462.018 529.36 446.688 527.576 431.269C525.708 415.739 523.957 400.097 522.377 384.314C507.79 376.344 493.243 368.246 478.719 360.075C480.569 382.238 482.847 404.031 485.37 425.663ZM565.486 495.633C555.773 490.131 546.095 484.516 536.449 478.805C536.069 476.075 535.687 473.347 535.305 470.618C533.39 456.944 531.473 443.261 529.838 429.357C528.088 414.932 526.448 400.378 524.948 385.717C539.608 393.709 554.308 401.566 569.067 409.232C572.775 441.622 577.09 473.479 581.935 504.837C576.44 501.803 570.958 498.733 565.486 495.633ZM627.664 529.062C612.464 521.379 597.369 513.355 582.361 505.072C577.553 473.718 573.272 441.873 569.596 409.507C576.243 412.957 582.902 416.368 589.574 419.734C597.626 423.797 605.696 427.803 613.788 431.744C617.87 464.68 622.516 497.113 627.664 529.062ZM675.688 551.949C660.47 545.162 645.37 537.962 630.373 530.427C625.114 498.414 620.358 465.911 616.17 432.902C630.926 440.061 645.752 446.997 660.661 453.651C665.162 486.892 670.186 519.656 675.688 551.949ZM613.214 427.078C609.519 396.836 606.302 366.171 603.608 335.068C589.306 328.73 575.042 322.254 560.8 315.696C561.002 318.382 561.209 321.063 561.422 323.741C563.536 351.22 566.109 378.325 569.097 405.075C576.281 408.77 583.48 412.42 590.694 416.019C598.185 419.755 605.691 423.444 613.214 427.078ZM568.564 404.801C565.578 378.288 563.001 351.418 560.874 324.172C560.637 321.257 560.407 318.337 560.184 315.411C546.03 308.891 531.898 302.29 517.773 295.664C518.271 304.493 518.828 313.278 519.441 322.019C520.833 342.019 522.552 361.881 524.526 381.553C539.159 389.452 553.832 397.22 568.564 404.801ZM521.966 380.17C520.137 361.515 518.551 342.659 517.296 323.55C516.655 313.962 516.077 304.322 515.569 294.63C512.471 293.176 509.374 291.721 506.276 290.266C503.673 289.043 501.07 287.819 498.467 286.596C490.275 282.745 482.082 278.895 473.887 275.055C474.361 290.15 475.045 305.108 475.9 319.924C476.587 332.156 477.431 344.246 478.402 356.224C492.896 364.295 507.411 372.295 521.966 380.17ZM477.562 355.756C476.594 344.024 475.743 332.202 475.03 320.279C474.137 305.206 473.42 289.977 472.921 274.603C460.329 268.704 447.729 262.832 435.111 257.026C435.264 277.113 435.869 296.941 436.926 316.467C437.227 322.175 437.561 327.86 437.927 333.523C451.13 340.964 464.337 348.389 477.562 355.756ZM435.603 332.213C435.306 327.454 435.031 322.681 434.779 317.895C433.708 297.595 433.124 276.969 433.028 256.068C420.79 250.444 408.535 244.884 396.252 239.423C395.633 263.483 395.808 287.156 396.777 310.329C405.606 315.294 414.431 320.272 423.256 325.25L423.456 325.363L423.533 325.406C427.556 327.676 431.579 329.945 435.603 332.213ZM395.853 309.809C394.863 286.669 394.671 263.024 395.276 238.99C392.388 237.707 389.499 236.43 386.607 235.159C377.478 231.215 368.332 227.315 359.155 223.527C357.791 245.51 357.231 267.181 357.478 288.408C359.457 289.494 361.436 290.58 363.415 291.667C374.238 297.68 385.049 303.735 395.853 309.809ZM355.535 287.344C355.381 266.22 356.017 244.668 357.438 222.82C345.896 218.077 334.302 213.519 322.624 209.287C320.316 228.867 318.854 248.258 318.25 267.283C330.723 273.829 343.14 280.556 355.535 287.344ZM317.392 266.833C317.991 247.85 319.442 228.502 321.731 208.964C310.639 204.961 299.469 201.255 288.196 197.963C286.137 208.486 284.472 219.037 283.214 229.538C282.961 232.244 282.683 234.953 282.404 237.659C282.027 241.332 281.65 245 281.337 248.649C293.429 254.471 305.437 260.567 317.392 266.833ZM279.434 247.735C279.747 244.292 280.11 240.833 280.472 237.375L280.473 237.37L280.473 237.365C280.733 234.886 280.993 232.407 281.234 229.935C282.545 219.129 284.279 208.273 286.421 197.449C280.992 195.887 275.539 194.422 270.058 193.068C264.969 191.697 259.832 190.528 254.651 189.561C252.1 197.776 249.937 206.2 248.199 214.718C247.017 220.554 245.952 226.397 245.008 232.231C246.158 232.707 247.306 233.187 248.453 233.669C258.854 238.113 269.175 242.823 279.434 247.735ZM244.351 231.96C245.29 226.129 246.349 220.29 247.529 214.456C249.246 205.985 251.379 197.602 253.894 189.421C244.166 187.643 234.283 186.575 224.265 186.221C222.386 190.067 220.612 194.071 218.956 198.21C216.256 205.263 213.868 212.532 211.814 219.923C222.801 223.415 233.624 227.533 244.351 231.96ZM209.967 219.343C212.069 211.854 214.504 204.491 217.25 197.344C218.799 193.496 220.445 189.762 222.18 186.158C217.673 186.043 213.14 186.072 208.582 186.245C204.141 186.455 199.646 187.032 195.113 187.972L193.311 190.012C193.004 190.423 192.707 190.849 192.41 191.274L192.408 191.278C192.11 191.705 191.812 192.132 191.504 192.544L187.915 197.611C186.735 199.334 185.615 201.203 184.569 203.196L181.277 208.999L179.92 211.96C182.766 212.423 185.593 212.971 188.401 213.604C195.671 215.191 202.854 217.132 209.967 219.343ZM179.339 211.866L180.825 208.586L184.129 202.735C185.191 200.698 186.337 198.798 187.548 197.065L191.196 191.858C191.375 191.607 191.556 191.346 191.739 191.083L191.758 191.055L191.764 191.046C192.175 190.455 192.591 189.856 193.003 189.327L193.966 188.217C188.128 189.505 182.226 191.392 176.289 193.873C168.642 196.801 160.954 202.321 153.658 210.063C154.727 210.04 155.792 210.044 156.852 210.076C164.458 210.1 171.959 210.697 179.339 211.866ZM645.892 321.744C646.831 332.347 647.826 342.903 648.875 353.414C637.392 348.545 625.939 343.573 614.51 338.524C611.526 337.206 608.544 335.881 605.564 334.55C605.214 330.597 604.871 326.638 604.538 322.671C602.395 297.621 600.694 272.24 599.436 246.56L637.144 261.155C638.535 261.684 639.927 262.213 641.319 262.741C642.615 282.575 644.139 302.247 645.892 321.744ZM602.688 324.172C602.948 327.325 603.213 330.474 603.483 333.619C589.178 327.211 574.914 320.657 560.675 314.017C558.634 286.417 557.225 258.365 556.448 229.922L597.583 245.843C598.818 272.276 600.52 298.397 602.688 324.172ZM555.727 229.643C556.537 258.086 557.98 286.134 560.056 313.728C545.907 307.127 531.782 300.441 517.665 293.728C516.215 267.506 515.298 240.901 515.056 213.928C517.834 214.992 520.61 216.058 523.386 217.126L555.727 229.643ZM513.136 213.194C513.301 240.065 514.127 266.561 515.469 292.684C509.725 289.951 503.982 287.215 498.239 284.478L498.134 284.428L498.029 284.378L497.923 284.327L497.747 284.244L497.573 284.161C489.656 280.388 481.739 276.616 473.819 272.854C473.084 248.349 472.906 223.486 473.453 198.295C486.71 203.151 499.932 208.143 513.136 213.194ZM472.409 197.913C471.888 223.088 472.091 247.926 472.851 272.394C460.278 266.423 447.697 260.479 435.095 254.603C435.005 239.006 435.186 223.254 435.64 207.367C435.853 200.021 436.157 192.638 436.551 185.221C448.541 189.305 460.489 193.554 472.409 197.913ZM433.645 208.27C433.185 223.521 432.977 238.648 433.019 253.635C420.81 247.95 408.581 242.331 396.322 236.814C396.636 225.654 397.119 214.413 397.773 203.101C398.305 193.26 399.054 183.349 400.017 173.389C402.95 174.286 405.879 175.196 408.805 176.117C417.457 178.841 426.082 181.671 434.685 184.587C434.237 192.52 433.89 200.416 433.645 208.27ZM396.741 203.366C396.112 214.441 395.646 225.447 395.345 236.374C392.659 235.167 389.971 233.964 387.281 232.767C377.987 228.7 368.676 224.674 359.33 220.766C359.861 212.599 360.503 204.389 361.255 196.143C362.374 185.384 363.73 174.534 365.374 163.67C376.653 166.493 387.849 169.683 398.989 173.075C398.016 183.231 397.266 193.336 396.741 203.366ZM359.531 196.345C358.793 204.282 358.157 212.186 357.622 220.054C346.137 215.271 334.598 210.672 322.97 206.397C323.809 199.522 324.752 192.625 325.798 185.713C327.381 175.954 329.287 166.202 331.502 156.511C342.351 158.336 353.101 160.636 363.774 163.272C362.078 174.349 360.681 185.401 359.531 196.345ZM324.814 185.886C323.803 192.63 322.891 199.36 322.077 206.069C311.072 202.04 299.986 198.303 288.791 194.977C290.217 187.948 291.818 180.935 293.59 173.961C295.441 166.74 297.563 159.63 299.933 152.691C310.24 153.42 320.44 154.678 330.554 156.353C328.323 166.155 326.405 176.018 324.814 185.886ZM291.854 173.446C290.075 180.417 288.464 187.428 287.024 194.456C281.637 192.878 276.224 191.397 270.783 190.025C265.772 188.663 260.716 187.493 255.618 186.515C258.478 177.698 261.785 169.142 265.492 160.992C266.855 158.076 268.265 155.23 269.719 152.457C271.382 152.343 273.041 152.273 274.694 152.258C276.33 152.243 277.961 152.202 279.591 152.161L279.593 152.161L279.597 152.161L279.598 152.161L279.599 152.161L279.6 152.161L279.602 152.161C283.12 152.072 286.631 151.984 290.165 152.163C292.815 152.261 295.458 152.396 298.093 152.566C295.774 159.384 293.688 166.362 291.854 173.446ZM264.946 160.096C261.145 168.483 257.764 177.293 254.852 186.369C245.334 184.581 235.669 183.46 225.877 183.011C231.031 173.018 236.898 164.188 243.224 156.947C243.958 156.776 244.693 156.604 245.428 156.432C250.002 155.359 254.58 154.285 259.073 153.645C262.271 153.189 265.465 152.789 268.645 152.537C267.378 155.001 266.144 157.522 264.946 160.096ZM239.528 158.151C233.809 165.257 228.496 173.618 223.776 182.925C218.912 182.75 214.016 182.74 209.091 182.895C205.688 183.038 202.253 183.394 198.794 183.961C207.94 174.402 217.499 167.408 227.025 163.323C231.205 161.316 235.376 159.591 239.528 158.151ZM641.058 258.692C639.258 230.435 637.922 201.849 637.049 172.965C623.673 168.833 610.293 164.717 596.896 160.664C597.19 188.338 597.977 215.72 599.254 242.773L638.193 257.626C639.148 257.982 640.103 258.337 641.058 258.692ZM597.41 242.07C596.196 215.077 595.468 187.761 595.227 160.159C582.151 156.209 569.059 152.321 555.938 148.539C555.563 174.783 555.702 200.754 556.355 226.409L597.41 242.07ZM555.631 226.133C554.949 200.494 554.78 174.537 555.127 148.305C551.912 147.38 548.696 146.461 545.478 145.549C535.754 142.794 526.016 140.102 516.254 137.511C515.238 162.182 514.863 186.571 515.03 210.668C516.475 211.215 517.92 211.763 519.365 212.311L522.077 213.339L522.686 213.57L524.273 214.171L555.631 226.133ZM513.12 209.944C513.021 185.946 513.453 161.649 514.522 137.053C502.041 133.758 489.521 130.635 476.943 127.767C475.16 150.481 474.058 172.961 473.524 195.185C486.754 199.995 499.943 204.956 513.12 209.944ZM472.476 194.805C472.987 172.627 474.064 150.188 475.819 127.511C464.654 124.98 453.443 122.652 442.173 120.586C439.679 141.339 437.854 161.956 436.709 182.33C448.678 186.305 460.594 190.493 472.476 194.805ZM434.851 181.715C436.058 161.429 437.924 140.915 440.44 120.271C436.712 119.597 432.977 118.952 429.236 118.338C422.176 117.188 415.093 116.151 407.981 115.265C404.683 133.907 402.1 152.532 400.252 170.998C403.34 171.899 406.423 172.811 409.504 173.731C417.985 176.264 426.432 178.935 434.851 181.715ZM399.221 170.697C401.047 152.288 403.602 133.718 406.869 115.128C396.481 113.858 386.031 112.915 375.5 112.419C371.442 128.681 368.229 145.177 365.683 161.648C376.931 164.385 388.1 167.463 399.221 170.697ZM364.085 161.262C366.641 144.915 369.854 128.523 373.89 112.346C372.431 112.284 370.972 112.23 369.511 112.186C361.135 111.802 352.672 111.914 344.135 112.518C342.07 118.278 340.141 124.143 338.357 130.093C335.993 138.22 333.846 146.429 331.923 154.687C342.736 156.463 353.447 158.706 364.085 161.262ZM330.972 154.532C332.888 146.267 335.026 138.049 337.38 129.911C339.119 124.055 340.998 118.277 343.011 112.6C333.917 113.29 324.741 114.538 315.495 116.344C314.52 118.194 313.559 120.071 312.616 121.974C308.098 131.153 304.042 140.891 300.515 151.003C310.771 151.688 320.916 152.906 330.972 154.532ZM298.671 150.886C302.36 140.257 306.617 130.029 311.367 120.401C311.969 119.192 312.578 117.993 313.193 116.805C311.437 117.165 309.679 117.545 307.919 117.945C301.186 119.671 294.403 121.979 287.594 124.86C281.439 132.479 275.662 141.316 270.429 151.115C271.06 151.058 271.692 151.001 272.323 150.944L272.343 150.942L272.362 150.94L272.44 150.933L272.505 150.928C273.34 150.852 274.176 150.777 275.013 150.7C280.261 150.213 285.406 150.265 290.506 150.509C293.236 150.595 295.957 150.722 298.671 150.886ZM269.33 151.217C274.248 141.826 279.657 133.282 285.421 125.799C282.351 127.151 279.277 128.62 276.199 130.203C265.606 135.711 255.052 144.093 244.945 155.028C244.873 155.106 244.801 155.184 244.729 155.263C244.654 155.345 244.578 155.428 244.503 155.511C249.44 154.295 254.359 153.181 259.262 152.413C262.647 151.883 265.99 151.53 269.33 151.217ZM635.822 91.2823C635.825 118.286 636.221 145.062 637.008 171.588C635.102 170.986 633.196 170.383 631.29 169.781L630.523 169.538C619.313 165.995 608.103 162.452 596.879 158.966C596.64 134.889 596.774 110.593 597.281 86.1006L597.302 85.2588L597.324 84.3991L597.34 83.7807L597.366 82.7851C610.205 85.469 623.026 88.3164 635.822 91.2823ZM595.716 86.9533C595.191 110.979 595.024 134.818 595.213 158.449C582.159 154.401 569.084 150.434 555.966 146.636C556.243 128.449 556.767 110.132 557.538 91.6997C557.786 86.2102 558.067 80.7081 558.381 75.1944C560.741 75.6167 563.098 76.0462 565.453 76.4823C575.591 78.3598 585.721 80.362 595.839 82.4667C595.796 83.9632 595.755 85.4588 595.716 86.9533ZM556.643 92.0487C555.904 110.285 555.408 128.407 555.153 146.401C552.081 145.513 549.006 144.635 545.928 143.767C536.079 140.99 526.217 138.257 516.333 135.615C516.917 121.878 517.701 108.055 518.701 94.1466C519.265 85.8647 519.925 77.5535 520.681 69.2183C533.023 70.8896 545.291 72.8633 557.487 75.0348C557.171 80.719 556.889 86.3906 556.643 92.0487ZM516.985 94.7588C515.992 108.312 515.205 121.777 514.606 135.154C502.149 131.838 489.655 128.672 477.104 125.748C477.939 115.344 478.917 104.891 480.05 94.3909C481.081 84.6943 482.274 74.9702 483.625 65.2318C495.514 66.151 507.334 67.4386 519.087 69.0042C518.285 77.6155 517.584 86.2022 516.985 94.7588ZM478.854 94.464C477.748 104.852 476.793 115.194 475.978 125.487C464.848 122.908 453.674 120.522 442.439 118.394C443.449 110.143 444.565 101.872 445.785 93.5855L446.845 86.3843L448.09 79.1759L450.629 64.771L450.846 63.7036C461.439 63.8536 471.977 64.354 482.462 65.1431C481.1 74.9353 479.896 84.7133 478.854 94.464ZM444.023 93.7282C442.82 101.857 441.715 109.973 440.711 118.069C437.052 117.385 433.387 116.729 429.715 116.102C422.641 114.914 415.539 113.832 408.403 112.902C409.779 105.264 411.275 97.6243 412.89 89.9928C414.105 83.6414 415.695 77.379 417.281 71.1309C417.833 68.9571 418.385 66.785 418.92 64.6116C428.44 63.8638 437.895 63.5486 447.277 63.6664C447.904 63.6706 448.531 63.676 449.158 63.6827L448.984 64.5315L446.376 79.2265L445.094 86.4786L444.023 93.7282ZM411.763 89.7757C410.152 97.4321 408.66 105.096 407.289 112.758C396.98 111.437 386.601 110.438 376.136 109.9C378.306 101.403 380.709 92.974 383.371 84.6496C385.116 79.141 386.967 73.7087 388.916 68.3646C398.575 66.7126 408.178 65.4937 417.716 64.7085C417.218 66.7301 416.711 68.7435 416.204 70.7568L416.2 70.7732C414.624 77.0239 413.049 83.2747 411.763 89.7757ZM382.045 83.6198C379.273 92.2572 376.776 101.005 374.527 109.821C373.006 109.75 371.484 109.689 369.96 109.638C361.751 109.245 353.458 109.327 345.094 109.88C349.078 99.0542 353.547 88.6169 358.443 78.7157C358.944 77.7114 359.45 76.7134 359.96 75.7216C368.769 72.7289 377.492 70.7102 386.218 68.8371C386.518 68.7834 386.818 68.7301 387.117 68.6772C385.343 73.5883 383.65 78.5722 382.045 83.6198ZM357.637 77.8098C352.604 88.0145 348.024 98.784 343.959 109.958C335.063 110.592 326.085 111.759 317.042 113.459C322.503 103.433 328.43 94.2514 334.701 86.101C336.214 85.3262 337.722 84.619 339.224 83.9944C340.867 83.3113 342.515 82.5842 344.164 81.8564L344.166 81.8555L344.168 81.8547C347.77 80.2653 351.379 78.6727 354.955 77.5285C356.11 77.0857 357.263 76.6621 358.415 76.256C358.155 76.7723 357.896 77.2903 357.637 77.8098ZM330.66 88.3178C325.016 96.0628 319.672 104.639 314.718 113.907C312.498 114.346 310.274 114.817 308.046 115.321C302.406 116.723 296.73 118.543 291.031 120.778C291.496 120.248 291.962 119.726 292.431 119.21C302.461 108.23 312.884 99.376 323.413 92.8915C325.823 91.2697 328.243 89.7249 330.66 88.3178ZM635.824 87.6779C635.825 86.4579 635.827 85.2374 635.83 84.0165C635.833 83.0414 635.836 82.0661 635.839 81.0906C635.841 80.5285 635.843 79.9664 635.845 79.4041C636.036 56.933 636.536 34.2716 637.404 11.4486C625.264 9.94546 613.083 8.64972 600.854 7.61021C599.234 31.7431 598.128 55.7016 597.458 79.4219C610.283 82.0166 623.072 84.7872 635.824 87.6779ZM595.937 79.1152C596.652 55.4643 597.804 31.5653 599.466 7.49329C594.391 7.07008 589.307 6.69134 584.215 6.36049C577.511 5.92489 570.788 5.5673 564.047 5.31263C561.694 27.742 559.862 50.0447 558.557 72.1627C561.079 72.5928 563.598 73.0304 566.117 73.4744C576.078 75.2308 586.019 77.1198 595.937 79.1152ZM557.658 72.0098C558.932 49.9321 560.729 27.668 563.045 5.27557C551.533 4.85844 539.964 4.74488 528.328 5.05925C525.299 25.6089 522.832 46.0969 520.936 66.4457C533.233 68.0466 545.468 69.9397 557.658 72.0098ZM519.347 66.2405C521.284 45.9684 523.778 25.5643 526.82 5.10236C515.772 5.43593 504.664 6.1597 493.488 7.37966C489.765 25.7887 486.594 44.2399 483.988 62.6444C495.841 63.507 507.622 64.7389 519.347 66.2405ZM482.825 62.561C485.428 44.2279 488.588 25.8494 492.291 7.51211C482.711 8.58775 473.081 10.0305 463.396 11.907C463.171 11.947 462.947 11.9873 462.723 12.0281C460.595 19.9055 458.616 27.838 456.79 35.8092L455.087 42.9597L453.608 50.1644L451.34 61.2814C461.898 61.3741 472.389 61.8233 482.825 62.561ZM449.655 61.2696L451.988 49.9309L453.479 42.6789L455.192 35.48C456.986 27.7277 458.923 20.0123 460.997 12.3487C451.727 14.1101 442.388 16.51 433.002 19.5415C431.257 24.3662 429.576 29.2392 427.963 34.1546C425.541 41.1029 423.49 48.2613 421.438 55.4236C420.831 57.5426 420.224 59.662 419.607 61.7765C419.565 61.9516 419.523 62.1266 419.481 62.3017C428.952 61.5195 438.359 61.1732 447.692 61.2636C448.346 61.2642 449.001 61.2662 449.655 61.2696ZM418.278 62.4034C418.361 62.058 418.444 61.7122 418.526 61.3659C419.158 59.1881 419.773 57.0302 420.383 54.8885L420.384 54.8856C422.45 47.6355 424.463 40.5705 426.903 33.5459C428.387 29.0001 429.929 24.4908 431.527 20.0229C422.79 22.9048 414.013 26.3331 405.212 30.3025C399.56 41.6521 394.374 53.6559 389.729 66.1564C399.303 64.472 408.823 63.2207 418.278 62.4034ZM387.919 66.48C392.414 54.2672 397.419 42.5176 402.867 31.373L402.605 31.4942C402.331 31.6209 402.057 31.748 401.784 31.8756L401.389 32.0601C401.242 32.1293 401.094 32.1987 400.946 32.2681C393.35 36.0544 385.668 40.3786 378.025 45.4871C372.073 54.0338 366.432 63.3709 361.18 73.3716C369.657 70.5302 378.061 68.5416 386.453 66.7493C386.942 66.6584 387.43 66.5686 387.919 66.48ZM359.613 73.9064C364.46 64.4993 369.648 55.6546 375.112 47.4735C362.822 56.0285 350.673 66.6992 339.19 80.5144C338.441 81.4071 337.695 82.3143 336.955 83.2359C337.728 82.8347 338.502 82.4297 339.277 82.0151C344.558 79.1881 349.876 77.0846 355.081 75.5669C356.595 74.9827 358.105 74.4304 359.613 73.9064ZM641.525 -62.4158C639.725 -38.1879 638.394 -14.1037 637.467 9.80392C625.349 8.23337 613.188 6.87431 600.977 5.78881C602.5 -16.5676 604.466 -39.0722 606.935 -61.6744C618.518 -62.2555 630.046 -62.4868 641.525 -62.4158ZM605.653 -61.6087C603.156 -39.0767 601.155 -16.6316 599.593 5.66697C594.588 5.23074 589.575 4.84085 584.553 4.50151C577.806 4.04566 571.039 3.66229 564.251 3.37855C565.425 -7.68028 566.726 -18.7695 568.152 -29.8821C569.363 -39.5053 570.704 -49.1433 572.173 -58.7871C581.851 -59.9419 591.488 -60.7756 601.092 -61.3517C602.614 -61.4434 604.134 -61.5291 605.653 -61.6087ZM567.081 -29.7808C565.678 -18.7154 564.4 -7.67368 563.247 3.33733C551.774 2.87469 540.24 2.70045 528.641 2.94553C530.041 -6.43893 531.558 -15.8357 533.192 -25.2375C534.807 -34.6464 536.578 -44.0462 538.499 -53.4235C538.98 -53.5171 539.46 -53.6093 539.941 -53.7003C550.367 -55.7697 560.734 -57.3947 571.054 -58.6522C569.601 -49.019 568.275 -39.3923 567.081 -29.7808ZM531.723 -25.2293C530.08 -15.8194 528.551 -6.41413 527.137 2.97963C516.14 3.2465 505.084 3.89502 493.964 5.03679C495.881 -4.3233 497.94 -13.6715 500.139 -22.9962C500.82 -25.618 501.485 -28.2439 502.149 -30.8697C503.348 -35.6044 504.546 -40.3392 505.842 -45.0508C516.286 -48.3642 526.682 -51.0589 537.012 -53.1297C535.101 -43.8478 533.337 -34.5434 531.723 -25.2293ZM499.024 -23.2616C496.795 -13.8073 494.709 -4.32898 492.769 5.16143C483.119 6.18263 473.421 7.57805 463.674 9.42039L463.421 9.4648C466.206 -0.676641 469.238 -10.7234 472.505 -20.6401C474.056 -25.3013 475.659 -29.9266 477.314 -34.512L477.617 -34.6378C486.608 -38.4166 495.576 -41.7465 504.508 -44.6243C503.338 -40.3035 502.242 -35.9492 501.151 -31.6179L501.15 -31.6172L501.15 -31.6164L501.15 -31.6157L501.15 -31.615L501.15 -31.6143L501.15 -31.6136L501.149 -31.6129L501.149 -31.6122C500.444 -28.8139 499.742 -26.0253 499.024 -23.2616ZM471.147 -21.4233C467.745 -11.15 464.592 -0.737544 461.7 9.77567C452.539 11.4681 443.312 13.7805 434.037 16.7065C435.194 13.565 436.379 10.4446 437.591 7.3468L442.994 -5.56003C444.12 -8.56693 445.44 -11.3613 446.766 -14.1665C447.382 -15.4717 448 -16.7793 448.6 -18.1117C448.79 -18.5081 448.98 -18.9039 449.171 -19.2991L449.306 -19.5781L449.512 -20.0028L449.663 -20.3145C449.748 -20.4899 449.834 -20.6651 449.919 -20.8403C450.085 -20.9361 450.25 -21.0322 450.415 -21.1283L450.747 -21.3216L451.143 -21.552L451.604 -21.8213L451.605 -21.8217C455.055 -23.8333 458.506 -25.8458 461.948 -27.4418L469.801 -31.3931L475.398 -33.7165C473.94 -29.6491 472.522 -25.5505 471.147 -21.4233ZM436.589 6.49621C435.208 10.028 433.863 13.59 432.554 17.1795C424.037 19.9251 415.48 23.1874 406.899 26.9614C412.559 15.9053 418.664 5.49955 425.139 -4.10561C432.127 -9.52823 439.158 -14.4095 446.207 -18.7322C446.764 -19.0386 447.32 -19.3507 447.877 -19.6667L447.656 -19.204C446.863 -17.3263 446.015 -15.4916 445.164 -13.6521L445.163 -13.6508L445.163 -13.6494L445.162 -13.6481L445.162 -13.6467L445.161 -13.6453L445.16 -13.644L445.16 -13.6426L445.159 -13.6413L445.159 -13.6399L445.158 -13.6377L445.157 -13.6365C444.077 -11.3001 442.993 -8.95607 442.015 -6.50722L436.589 6.49621ZM420.849 -0.70417C415.078 8.27191 409.62 17.8822 404.53 28.0163C403.382 28.5334 402.234 29.0598 401.085 29.5952C394.635 32.7786 388.134 36.3399 381.646 40.4362C382.741 38.9537 383.845 37.4977 384.959 36.069C394.614 23.8779 404.668 13.198 414.957 4.20487C416.917 2.52588 418.881 0.889444 420.849 -0.70417ZM641.756 -65.4978C643.445 -87.7594 645.533 -110.141 648.068 -132.618C637.502 -131.127 626.895 -129.33 616.251 -127.226C616.001 -127.174 615.752 -127.123 615.503 -127.071C612.298 -106.206 609.567 -85.3812 607.261 -64.637C618.816 -65.2608 630.31 -65.5264 641.756 -65.4978ZM605.984 -64.5667C608.317 -85.2611 611.07 -106.027 614.289 -126.817C603.887 -124.616 593.43 -121.886 582.932 -118.63C578.996 -99.6368 575.548 -80.5944 572.601 -61.5713C582.243 -62.7678 591.841 -63.6492 601.399 -64.2899C602.929 -64.3885 604.457 -64.4807 605.984 -64.5667ZM571.477 -61.4304C574.383 -80.3665 577.784 -99.3243 581.67 -118.236C572.333 -115.304 562.963 -111.957 553.569 -108.197C552.801 -107.895 552.033 -107.587 551.265 -107.275C546.699 -90.3422 542.619 -73.2465 539.046 -56.0708L539.233 -56.1072L539.381 -56.1361L539.541 -56.167C539.721 -56.2017 539.901 -56.2363 540.081 -56.2707C550.6 -58.4235 561.064 -60.1122 571.477 -61.4304ZM537.562 -55.777C541.129 -72.8407 545.192 -89.824 549.733 -106.647C540.037 -102.629 530.315 -97.863 520.598 -92.3644C519.202 -88.3886 517.841 -84.3867 516.518 -80.3607L511.977 -66.1257C511.047 -63.2269 510.219 -60.3039 509.39 -57.381L509.39 -57.3804C508.863 -55.5209 508.336 -53.6614 507.783 -51.8081C507.372 -50.4435 506.973 -49.0759 506.584 -47.706C516.964 -51.0223 527.296 -53.7145 537.562 -55.777ZM505.236 -47.272C505.713 -48.9795 506.204 -50.6798 506.712 -52.3696C507.212 -54.0747 507.696 -55.7836 508.179 -57.4925C509.049 -60.5667 509.919 -63.6409 510.881 -66.6931L515.422 -80.9281C516.579 -84.4501 517.763 -87.954 518.974 -91.4386C510.621 -86.6417 502.272 -81.3041 493.946 -75.4364C493.717 -74.9422 493.488 -74.4472 493.261 -73.9514C487.899 -62.0521 482.894 -49.7628 478.278 -37.1649C487.292 -40.9955 496.282 -44.3657 505.236 -47.272ZM476.351 -36.3566C481.007 -49.1477 486.065 -61.6214 491.493 -73.6924C491.126 -73.4287 490.758 -73.1639 490.391 -72.8981C483.012 -67.5178 475.685 -61.4725 468.443 -54.7914C462.492 -45.0353 456.804 -34.7134 451.424 -23.8948C454.886 -25.9262 458.354 -27.9584 461.811 -29.618L469.726 -33.6059L476.351 -36.3566ZM449.329 -22.6688C454.174 -32.5884 459.273 -42.1072 464.595 -51.1741C462.843 -49.4963 461.097 -47.7814 459.356 -46.0295C449.161 -35.9471 439.283 -24.1763 429.896 -10.924C429.347 -10.1643 428.801 -9.39891 428.257 -8.6279C434.152 -13.0655 440.075 -17.1162 446.011 -20.7694C447.116 -21.3866 448.222 -22.0238 449.329 -22.6688ZM653.617 -176.735C651.654 -162.616 649.878 -148.528 648.278 -134.477C637.722 -133.061 627.123 -131.34 616.485 -129.314C616.267 -129.269 616.048 -129.225 615.829 -129.18C617.621 -140.735 619.558 -152.301 621.649 -163.873C622.979 -171.761 624.543 -179.65 626.151 -187.522C627.324 -187.979 628.496 -188.428 629.668 -188.869C638.691 -192.148 647.693 -195.128 656.667 -197.809C655.597 -190.781 654.58 -183.756 653.617 -176.735ZM620.527 -163.886C618.406 -152.232 616.438 -140.578 614.618 -128.931C604.266 -126.783 593.859 -124.113 583.41 -120.926C585.638 -131.57 588.019 -142.197 590.552 -152.795C592.197 -159.791 593.927 -166.772 595.741 -173.728C605.501 -178.769 615.253 -183.217 624.979 -187.061L624.722 -185.791L624.72 -185.783C623.241 -178.49 621.763 -171.205 620.527 -163.886ZM589.41 -153.169C586.829 -142.317 584.407 -131.435 582.145 -120.538C572.695 -117.619 563.21 -114.277 553.701 -110.514C553.12 -110.287 552.538 -110.058 551.957 -109.825C555.085 -121.291 558.437 -132.681 562.005 -143.968C563.352 -148.212 564.734 -152.434 566.151 -156.634C575.522 -162.621 584.903 -168.068 594.279 -172.968C592.581 -166.386 590.957 -159.784 589.41 -153.169ZM560.86 -144.547C557.15 -132.869 553.67 -121.08 550.429 -109.209C540.85 -105.305 531.245 -100.669 521.642 -95.3153C526.481 -108.877 531.736 -122.126 537.373 -134.975L537.557 -135.4C546.462 -142.806 555.435 -149.518 564.443 -155.511C563.222 -151.873 562.028 -148.218 560.86 -144.547ZM535.315 -133.52C529.838 -120.824 524.727 -107.757 520.011 -94.3989C511.879 -89.7966 503.75 -84.6806 495.641 -79.0606C501.162 -90.7458 507.007 -101.992 513.14 -112.727C520.048 -119.903 527.06 -126.512 534.146 -132.527C534.535 -132.859 534.925 -133.19 535.315 -133.52ZM508.774 -108.102C503.318 -98.2328 498.102 -87.9553 493.155 -77.3219C492.215 -76.6582 491.276 -75.9877 490.336 -75.3104C484.224 -70.897 478.146 -66.0207 472.122 -60.6985C481.925 -76.1101 492.392 -90.0025 503.334 -102.083C505.139 -104.128 506.953 -106.135 508.774 -108.102ZM657.155 -200.987C660.215 -220.786 663.698 -240.601 667.595 -260.385C659.072 -256.187 650.539 -251.567 642.008 -246.532C641.042 -245.966 640.076 -245.393 639.11 -244.811L638.606 -242.695L634.744 -227.022C634.349 -225.269 633.952 -223.517 633.556 -221.765L633.555 -221.761L633.554 -221.757L633.553 -221.752L633.552 -221.748L633.551 -221.744L633.55 -221.739L633.549 -221.735L633.548 -221.731L633.547 -221.726L633.546 -221.722L633.545 -221.718L633.545 -221.714L633.544 -221.709L633.543 -221.705L633.542 -221.701C631.563 -212.964 629.586 -204.232 627.789 -195.493L627.39 -193.553C627.192 -192.593 626.995 -191.634 626.797 -190.675C627.807 -191.071 628.817 -191.46 629.826 -191.843C638.96 -195.196 648.071 -198.245 657.155 -200.987ZM625.615 -190.208C625.977 -192.005 626.337 -193.803 626.689 -195.603C628.267 -203.651 630.123 -211.662 631.98 -219.679L631.981 -219.684C632.566 -222.209 633.151 -224.735 633.728 -227.264L637.626 -242.979L637.886 -244.07C628.891 -238.592 619.92 -232.44 611 -225.633C605.744 -209.625 600.929 -193.344 596.579 -176.915C606.27 -181.936 615.955 -186.37 625.615 -190.208ZM595.106 -176.147C599.35 -192.346 604.046 -208.413 609.173 -224.229C600.481 -217.504 591.84 -210.158 583.274 -202.21C583.014 -201.592 582.755 -200.973 582.497 -200.353C577.07 -187.185 571.99 -173.697 567.281 -159.956C576.55 -165.885 585.83 -171.285 595.106 -176.147ZM565.574 -158.856C570.368 -172.92 575.552 -186.718 581.1 -200.179C580.025 -199.167 578.951 -198.145 577.878 -197.114C570.782 -190.191 563.777 -182.744 556.889 -174.8C554.361 -170.133 551.856 -165.449 549.389 -160.704C547.898 -157.817 546.499 -154.833 545.097 -151.845L545.097 -151.844L545.097 -151.843L545.096 -151.843L545.096 -151.842L545.096 -151.841L545.095 -151.841L545.095 -151.84L545.095 -151.839L545.094 -151.839L545.094 -151.838L545.094 -151.837L545.093 -151.837L545.092 -151.834L545.091 -151.831L545.089 -151.828C544.92 -151.468 544.751 -151.107 544.582 -150.747C544.365 -150.284 544.147 -149.822 543.929 -149.36C543.824 -149.137 543.718 -148.915 543.613 -148.692C543.498 -148.45 543.383 -148.209 543.268 -147.968L540.232 -141.595L539.295 -139.425C548.001 -146.587 556.771 -153.072 565.574 -158.856ZM537.082 -137.588L539.276 -142.639L542.324 -149.062C542.977 -150.43 543.624 -151.816 544.272 -153.204C545.642 -156.14 547.017 -159.085 548.468 -161.894C549.106 -163.129 549.743 -164.367 550.38 -165.606L550.889 -166.595C551.102 -167.01 551.315 -167.424 551.529 -167.839C551.822 -168.408 552.115 -168.976 552.409 -169.544C550.644 -167.439 548.887 -165.3 547.139 -163.129C537.204 -150.514 527.634 -136.725 518.525 -121.9C517.989 -121.012 517.455 -120.12 516.923 -119.224C522.49 -124.794 528.12 -129.993 533.798 -134.806C534.891 -135.744 535.986 -136.671 537.082 -137.588ZM677.658 -307.425C674.187 -292.393 670.953 -277.32 667.96 -262.229C659.289 -258.014 650.608 -253.365 641.928 -248.286C641.156 -247.837 640.385 -247.383 639.613 -246.925L640.47 -250.522L642.592 -258.338L646.814 -273.875C647.742 -277.148 648.721 -280.409 649.695 -283.658C650.259 -285.536 650.821 -287.41 651.372 -289.28C652.102 -291.731 652.842 -294.177 653.592 -296.617C662.315 -303.951 671.089 -310.728 679.894 -316.934C679.134 -313.769 678.389 -310.599 677.658 -307.425ZM639.501 -250.855L638.392 -246.194C629.519 -240.858 620.668 -234.871 611.864 -228.252C616.902 -243.43 622.336 -258.353 628.144 -272.914C631.217 -276.097 634.3 -279.234 637.431 -282.082C638.304 -282.9 639.174 -283.724 640.042 -284.547L640.046 -284.551C641.855 -286.265 643.659 -287.975 645.48 -289.61L652.237 -295.446C651.66 -293.563 651.089 -291.677 650.524 -289.788C650.062 -288.24 649.596 -286.698 649.132 -285.158L649.132 -285.157L649.131 -285.155L649.131 -285.154L649.13 -285.152L649.13 -285.15L649.129 -285.149L649.129 -285.147L649.128 -285.146L649.128 -285.144L649.127 -285.143L649.127 -285.141L649.126 -285.139L649.126 -285.138L649.125 -285.136L649.125 -285.135C648.032 -281.514 646.945 -277.91 645.918 -274.292L641.649 -258.665L639.501 -250.855ZM625.615 -270.285C620.059 -256.098 614.859 -241.592 610.032 -226.864C601.559 -220.405 593.132 -213.362 584.774 -205.751C590.385 -218.9 596.323 -231.689 602.558 -244.061C608.771 -251.815 615.098 -259.156 621.52 -266.06C622.887 -267.451 624.251 -268.866 625.615 -270.285ZM598.853 -239.369C593.167 -227.832 587.739 -215.943 582.592 -203.75C580.884 -202.172 579.178 -200.57 577.476 -198.945C571.677 -193.316 565.939 -187.337 560.275 -181.022C560.612 -181.64 560.95 -182.257 561.288 -182.875L561.811 -183.831L562.406 -184.919C565.64 -190.826 569.074 -196.326 572.5 -201.814L572.501 -201.815L572.501 -201.816L572.502 -201.818L572.503 -201.819L572.504 -201.82L572.505 -201.822L572.505 -201.823L572.506 -201.824L572.507 -201.826L572.508 -201.827L572.508 -201.828L572.509 -201.83L572.514 -201.838C573.747 -203.812 574.978 -205.785 576.199 -207.774L583.43 -218.46L587.051 -223.775L590.863 -228.789C593.503 -232.392 596.166 -235.919 598.853 -239.369ZM680.751 -320.483C684.898 -337.518 689.454 -354.427 694.4 -371.153C686.28 -363.317 678.26 -354.877 670.369 -345.864C664.798 -331.016 659.597 -315.868 654.789 -300.481C663.401 -307.696 672.061 -314.368 680.751 -320.483ZM653.442 -299.347C658.146 -314.45 663.229 -329.324 668.668 -343.91C667.676 -342.764 666.686 -341.609 665.698 -340.445C659.672 -333.379 653.756 -325.924 647.965 -318.105C641.692 -305.081 635.737 -291.619 630.12 -277.816C632.396 -280.15 634.693 -282.417 637.043 -284.522C637.846 -285.283 638.651 -286.053 639.458 -286.824L639.463 -286.829L639.468 -286.834L639.473 -286.839L639.479 -286.844L639.484 -286.848C641.352 -288.634 643.23 -290.429 645.116 -292.148L653.26 -299.193L653.442 -299.347ZM627.532 -275.135C632.495 -287.562 637.732 -299.735 643.229 -311.588C630.457 -293.685 618.337 -274 607.054 -252.809L606.943 -252.598L606.689 -252.112L606.46 -251.674C611.249 -257.473 616.103 -263.027 621.012 -268.326C622.531 -269.883 624.039 -271.468 625.547 -273.052L625.551 -273.056C626.211 -273.75 626.872 -274.443 627.532 -275.135ZM709.381 -417.814C704.341 -403.289 699.597 -388.577 695.162 -373.718C687.233 -366.163 679.399 -358.03 671.683 -349.345C676.565 -362.182 681.723 -374.789 687.141 -387.124C694.363 -397.914 701.787 -408.157 709.381 -417.814ZM684.373 -382.946C679.343 -371.33 674.543 -359.478 669.987 -347.425C668.448 -345.673 666.914 -343.898 665.385 -342.102C660.494 -336.382 655.675 -330.406 650.935 -324.189C659.949 -342.414 669.594 -359.736 679.817 -375.884C681.326 -378.263 682.844 -380.617 684.373 -382.946ZM711.477 -423.794C712.779 -427.473 714.1 -431.14 715.441 -434.794C716.623 -438.232 717.943 -441.571 719.265 -444.916L719.27 -444.928C719.943 -446.629 720.616 -448.331 721.272 -450.049C722.903 -454.323 724.544 -458.559 726.275 -462.707C725.563 -461.524 724.858 -460.327 724.162 -459.112C714.268 -442.655 704.901 -425.186 696.146 -406.866C694.585 -403.569 693.043 -400.25 691.52 -396.909C698.025 -406.317 704.685 -415.287 711.477 -423.794Z" fill="#7B60F8"/>
</svg>
